<svg xmlns="http://www.w3.org/2000/svg" width="43.038" height="43.038" viewBox="0 0 43.038 43.038">
  <g id="ic_creative" transform="translate(0.001)">
    <g id="auto-fix" transform="translate(-0.001)">
      <path id="Path_18" data-name="Path 18" d="M107.124,7.378l5.124,2.869-2.869-5.124L112.247,0l-5.124,2.869L102,0l2.869,5.124L102,10.247Z" transform="translate(-93.802)" fill="#f9f9f9"/>
      <path id="Path_19" data-name="Path 19" d="M413.124,308.869,408,306l2.869,5.124L408,316.247l5.124-2.869,5.124,2.869-2.869-5.124L418.247,306Z" transform="translate(-375.209 -281.407)" fill="#f9f9f9"/>
      <path id="Path_20" data-name="Path 20" d="M418.247,0l-5.124,2.869L408,0l2.869,5.124L408,10.247l5.124-2.869,5.124,2.869-2.869-5.124Z" transform="translate(-375.209)" fill="#f9f9f9"/>
      <path id="Path_21" data-name="Path 21" d="M27.461,128.115a1.981,1.981,0,0,0-2.869,0L.614,152.093a1.981,1.981,0,0,0,0,2.869l4.714,4.714a1.981,1.981,0,0,0,2.869,0L32.175,135.7a1.981,1.981,0,0,0,0-2.869Zm-2.254,11.272-4.3-4.3,4.919-4.919,4.3,4.3Z" transform="translate(0.001 -117.253)" fill="#f9f9f9"/>
    </g>
  </g>
</svg>
