<svg id="ic_fb" xmlns="http://www.w3.org/2000/svg" width="50.61" height="50.61" viewBox="0 0 50.61 50.61">
  <path id="Path_4" data-name="Path 4" d="M291.49,508.668q-.316.052-.635.1Q291.174,508.72,291.49,508.668Zm0,0" transform="translate(-262.105 -458.388)" fill="#d5d5d5"/>
  <path id="Path_5" data-name="Path 5" d="M299.642,507.793l-.3.053Zm0,0" transform="translate(-269.751 -457.599)" fill="#d5d5d5"/>
  <path id="Path_6" data-name="Path 6" d="M278.354,510.34q-.37.042-.744.073Q277.983,510.382,278.354,510.34Zm0,0" transform="translate(-250.169 -459.895)" fill="#d5d5d5"/>
  <path id="Path_7" data-name="Path 7" d="M286.8,509.738c-.119.016-.238.031-.357.044C286.565,509.769,286.684,509.754,286.8,509.738Zm0,0" transform="translate(-258.131 -459.352)" fill="#d5d5d5"/>
  <path id="Path_8" data-name="Path 8" d="M306.931,506.41l-.267.056Zm0,0" transform="translate(-276.351 -456.353)" fill="#d5d5d5"/>
  <path id="Path_9" data-name="Path 9" d="M324.7,502.113l-.215.06Zm0,0" transform="translate(-292.41 -452.481)" fill="#d5d5d5"/>
  <path id="Path_10" data-name="Path 10" d="M319.294,503.543l-.235.061Zm0,0" transform="translate(-287.521 -453.769)" fill="#d5d5d5"/>
  <path id="Path_11" data-name="Path 11" d="M312.316,505.254l-.249.056Zm0,0" transform="translate(-281.22 -455.311)" fill="#d5d5d5"/>
  <path id="Path_12" data-name="Path 12" d="M273.88,511.09q-.2.017-.4.03Q273.681,511.107,273.88,511.09Zm0,0" transform="translate(-246.447 -460.57)" fill="#d5d5d5"/>
  <path id="Path_13" data-name="Path 13" d="M50.61,25.3a25.3,25.3,0,1,0-25.3,25.3c.149,0,.3,0,.445-.006v-19.7H20.313V24.569H25.75V19.907c0-5.407,3.3-8.35,8.124-8.35a44.753,44.753,0,0,1,4.874.249v5.651H35.422c-2.624,0-3.132,1.247-3.132,3.077v4.035h6.274l-.818,6.336H32.29V49.632A25.318,25.318,0,0,0,50.61,25.3Zm0,0" fill="#d5d5d5"/>
  <path id="Path_14" data-name="Path 14" d="M265.684,511.43q-.4.025-.793.039Q265.288,511.456,265.684,511.43Zm0,0" transform="translate(-238.707 -460.877)" fill="#d5d5d5"/>
  <path id="Path_15" data-name="Path 15" d="M260.924,511.836q-.21.007-.42.01Q260.714,511.843,260.924,511.836Zm0,0" transform="translate(-234.754 -461.243)" fill="#d5d5d5"/>
</svg>
