<svg id="ic_ig" xmlns="http://www.w3.org/2000/svg" width="50.61" height="50.61" viewBox="0 0 50.61 50.61">
  <path id="Path_1" data-name="Path 1" d="M216.687,211.844A4.844,4.844,0,1,1,211.844,207,4.843,4.843,0,0,1,216.687,211.844Zm0,0" transform="translate(-186.539 -186.539)" fill="#d5d5d5"/>
  <path id="Path_2" data-name="Path 2" d="M158.725,138.831a4.812,4.812,0,0,0-2.758-2.758,8.039,8.039,0,0,0-2.7-.5c-1.533-.07-1.992-.085-5.872-.085s-4.34.015-5.872.085a8.044,8.044,0,0,0-2.7.5,4.814,4.814,0,0,0-2.758,2.758,8.043,8.043,0,0,0-.5,2.7c-.07,1.532-.085,1.992-.085,5.872s.015,4.339.085,5.872a8.04,8.04,0,0,0,.5,2.7,4.812,4.812,0,0,0,2.758,2.758,8.029,8.029,0,0,0,2.7.5c1.532.07,1.991.085,5.871.085s4.34-.015,5.872-.085a8.029,8.029,0,0,0,2.7-.5,4.812,4.812,0,0,0,2.758-2.758,8.047,8.047,0,0,0,.5-2.7c.07-1.533.085-1.992.085-5.872s-.015-4.34-.085-5.872A8.03,8.03,0,0,0,158.725,138.831ZM147.4,154.862a7.461,7.461,0,1,1,7.461-7.461A7.461,7.461,0,0,1,147.4,154.862Zm7.756-13.474a1.744,1.744,0,1,1,1.744-1.744A1.744,1.744,0,0,1,155.154,141.388Zm0,0" transform="translate(-122.092 -122.096)" fill="#d5d5d5"/>
  <path id="Path_3" data-name="Path 3" d="M25.3,0a25.3,25.3,0,1,0,25.3,25.3A25.308,25.308,0,0,0,25.3,0ZM39.748,31.3a10.661,10.661,0,0,1-.675,3.527,7.43,7.43,0,0,1-4.25,4.25,10.668,10.668,0,0,1-3.527.675c-1.55.071-2.045.088-5.991.088s-4.441-.017-5.991-.088a10.668,10.668,0,0,1-3.527-.675,7.43,7.43,0,0,1-4.25-4.25,10.658,10.658,0,0,1-.675-3.527c-.071-1.55-.088-2.045-.088-5.991s.017-4.441.088-5.991a10.662,10.662,0,0,1,.675-3.527,7.435,7.435,0,0,1,4.25-4.25,10.671,10.671,0,0,1,3.527-.675c1.55-.071,2.045-.088,5.991-.088s4.441.017,5.991.088a10.673,10.673,0,0,1,3.527.675,7.432,7.432,0,0,1,4.25,4.25,10.66,10.66,0,0,1,.676,3.527c.071,1.55.087,2.045.087,5.991S39.819,29.746,39.748,31.3Zm0,0" fill="#d5d5d5"/>
</svg>
