<svg xmlns="http://www.w3.org/2000/svg" width="50.61" height="50.61" viewBox="0 0 50.61 50.61">
  <path id="ic_tw" d="M25.3,0a25.3,25.3,0,1,0,25.3,25.3A25.308,25.308,0,0,0,25.3,0ZM36.859,19.73q.017.374.017.751c0,7.675-5.842,16.525-16.526,16.526h0a16.44,16.44,0,0,1-8.9-2.609,11.813,11.813,0,0,0,1.385.08,11.654,11.654,0,0,0,7.214-2.486,5.815,5.815,0,0,1-5.426-4.034,5.789,5.789,0,0,0,2.623-.1,5.81,5.81,0,0,1-4.66-5.693c0-.026,0-.05,0-.074a5.768,5.768,0,0,0,2.631.726,5.813,5.813,0,0,1-1.8-7.754,16.49,16.49,0,0,0,11.972,6.069,5.811,5.811,0,0,1,9.9-5.3,11.65,11.65,0,0,0,3.688-1.41,5.831,5.831,0,0,1-2.554,3.213,11.584,11.584,0,0,0,3.335-.915,11.8,11.8,0,0,1-2.9,3.008Zm0,0" fill="#d5d5d5"/>
</svg>
